# xmcd CD database file
#
# Track frame offsets:
#	150
#	13154
#	27624
#	48244
#	60748
#	81311
#	97553
#	118569
#	130313
#	142263
#	155975
#	172503
#	195435
#	207460
#	226156
#	236045
#
# Disc length: 3354 seconds
#
# Revision: 0
# Processed by: cddbd v1.5.1PL0 Copyright (c) Steve Scherf et al.
# Submitted via: CDex 1.51
#
DISCID=d80d1810
DTITLE=Various Artist - Hope Street 1004
DYEAR=2004
DGENRE=Country
TTITLE0=Michael Birchfield/Unplug The Jukebox
TTITLE1=Tammy Sue Bakker/Hello God
TTITLE2=Bluegrass Charm/The Family Who Prays
TTITLE3=Rosalee Jennings/Steppin' Out
TTITLE4=Gary R. Smith/I Just Can't Wait
TTITLE5=Joel Curtis/I Saw The Light
TTITLE6=James Marvell/Prophecy
TTITLE7=Jerry McArthur/Walking Golden Streets
TTITLE8=Darlene Jones/Blessed By An Angel
TTITLE9=Carolyn Richards/He's The Answer
TTITLE10=Mike Hubert/How Fast
TTITLE11=Micki Farington/Dying To Live
TTITLE12=Gene Farington/Let The River Flow
TTITLE13=Sandy Goad/Somebody's Prayin'
TTITLE14=Carolan Freeman/Homesteaded In Heaven
TTITLE15=Ann Webb/Texas Cowboy Church
EXTD=YEAR: 2004
EXTT0=
EXTT1=
EXTT2=
EXTT3=
EXTT4=
EXTT5=
EXTT6=
EXTT7=
EXTT8=
EXTT9=
EXTT10=
EXTT11=
EXTT12=
EXTT13=
EXTT14=
EXTT15=
PLAYORDER=
